<svg width="506" height="170" viewBox="0 0 506 170" fill="none" xmlns="http://www.w3.org/2000/svg">
<path d="M139.171 46.0674L131.102 23.2924C127.228 12.3604 115.226 6.63842 104.294 10.512L23.7424 39.0537C12.8104 42.9273 7.08837 54.9295 10.9619 65.8615L39.5037 146.413C43.3772 157.345 55.3795 163.067 66.3115 159.193L121.125 139.771" stroke="#981EF8" stroke-width="18" stroke-linecap="round"/>
<rect x="5.50342" y="46.9492" width="125.93" height="125.93" rx="17" transform="rotate(-19.8076 5.50342 46.9492)" fill="url(#paint0_radial_216_27)"/>
<path d="M97.0192 71.8762C96.7862 69.5273 95.7865 67.7025 94.0199 66.4018C92.2533 65.1011 89.8558 64.4508 86.8274 64.4508C84.7696 64.4508 83.0322 64.742 81.6151 65.3244C80.1979 65.8874 79.1108 66.6736 78.3537 67.6831C77.616 68.6925 77.2472 69.8379 77.2472 71.1191C77.2083 72.1868 77.4316 73.1187 77.9169 73.9146C78.4216 74.7105 79.1108 75.3997 79.9844 75.9821C80.858 76.545 81.8674 77.0401 83.0128 77.4672C84.1581 77.8748 85.3812 78.2243 86.6818 78.5154L92.0398 79.7967C94.6411 80.3791 97.0289 81.1556 99.2031 82.1262C101.377 83.0969 103.26 84.2908 104.852 85.7079C106.444 87.1251 107.677 88.7946 108.55 90.7164C109.443 92.6383 109.9 94.8417 109.919 97.3265C109.9 100.976 108.968 104.14 107.124 106.819C105.299 109.479 102.659 111.546 99.2031 113.022C95.767 114.478 91.6224 115.206 86.7692 115.206C81.9548 115.206 77.7616 114.468 74.1896 112.993C70.6371 111.517 67.861 109.333 65.8615 106.441C63.8814 103.529 62.8428 99.9279 62.7457 95.6376H74.9467C75.0826 97.6371 75.6553 99.3066 76.6648 100.646C77.6937 101.966 79.0623 102.966 80.7706 103.645C82.4983 104.305 84.4493 104.635 86.6236 104.635C88.759 104.635 90.6129 104.325 92.1854 103.704C93.7772 103.082 95.0099 102.219 95.8835 101.112C96.7571 100.006 97.1939 98.734 97.1939 97.2974C97.1939 95.9579 96.7959 94.832 96 93.9196C95.2235 93.0072 94.0781 92.2306 92.5639 91.59C91.0691 90.9494 89.2346 90.367 87.0604 89.8429L80.5668 88.2122C75.5388 86.9892 71.5689 85.077 68.657 82.4757C65.745 79.8743 64.2988 76.3703 64.3182 71.9636C64.2988 68.3528 65.2597 65.1982 67.201 62.4998C69.1617 59.8014 71.8504 57.6951 75.267 56.1809C78.6837 54.6667 82.5663 53.9096 86.9148 53.9096C91.3409 53.9096 95.2041 54.6667 98.5043 56.1809C101.824 57.6951 104.406 59.8014 106.25 62.4998C108.094 65.1982 109.045 68.3237 109.104 71.8762H97.0192ZM118.167 114.361V69.6341H129.99V77.5254H130.514C131.445 74.9047 132.999 72.8372 135.173 71.323C137.347 69.8088 139.948 69.0517 142.977 69.0517C146.044 69.0517 148.655 69.8185 150.81 71.3521C152.965 72.8663 154.401 74.9241 155.119 77.5254H155.585C156.498 74.9629 158.148 72.9148 160.536 71.3812C162.943 69.8282 165.787 69.0517 169.068 69.0517C173.241 69.0517 176.629 70.3815 179.23 73.041C181.851 75.6812 183.161 79.4279 183.161 84.2811V114.361H170.786V86.7271C170.786 84.2422 170.126 82.3786 168.806 81.1362C167.486 79.8938 165.835 79.2725 163.855 79.2725C161.603 79.2725 159.847 79.9908 158.585 81.4274C157.323 82.8445 156.692 84.7179 156.692 87.0474V114.361H144.666V86.465C144.666 84.2714 144.035 82.5242 142.773 81.2235C141.53 79.9229 139.89 79.2725 137.852 79.2725C136.473 79.2725 135.231 79.622 134.124 80.3208C133.037 81.0003 132.173 81.9612 131.533 83.2037C130.892 84.4267 130.572 85.8632 130.572 87.5133V114.361H118.167ZM205.714 115.206C202.861 115.206 200.318 114.711 198.085 113.721C195.853 112.711 194.086 111.226 192.785 109.265C191.504 107.285 190.863 104.82 190.863 101.869C190.863 99.3843 191.32 97.2974 192.232 95.6085C193.144 93.9196 194.387 92.5607 195.959 91.5318C197.532 90.5029 199.318 89.7264 201.317 89.2022C203.336 88.6781 205.452 88.3092 207.665 88.0957C210.267 87.8239 212.363 87.5716 213.955 87.3386C215.547 87.0862 216.702 86.7174 217.42 86.2321C218.139 85.7467 218.498 85.0285 218.498 84.0772V83.9025C218.498 82.0583 217.915 80.6315 216.751 79.622C215.605 78.6125 213.974 78.1078 211.858 78.1078C209.626 78.1078 207.85 78.6028 206.53 79.5929C205.21 80.5635 204.336 81.7865 203.909 83.2619L192.436 82.3301C193.018 79.6123 194.164 77.2633 195.872 75.2832C197.58 73.2837 199.784 71.7501 202.482 70.6823C205.2 69.5952 208.345 69.0517 211.917 69.0517C214.402 69.0517 216.78 69.3429 219.051 69.9252C221.342 70.5076 223.37 71.4103 225.137 72.6333C226.923 73.8564 228.33 75.4288 229.359 77.3507C230.388 79.2531 230.903 81.5341 230.903 84.1937V114.361H219.138V108.159H218.789C218.071 109.557 217.11 110.789 215.906 111.857C214.702 112.905 213.256 113.73 211.567 114.332C209.878 114.915 207.927 115.206 205.714 115.206ZM209.267 106.645C211.092 106.645 212.703 106.286 214.101 105.567C215.498 104.83 216.595 103.84 217.391 102.597C218.187 101.355 218.585 99.9473 218.585 98.3748V93.6284C218.197 93.8807 217.663 94.1137 216.983 94.3272C216.323 94.5214 215.576 94.7058 214.741 94.8805C213.907 95.0358 213.072 95.1814 212.237 95.3173C211.402 95.4338 210.645 95.5405 209.966 95.6376C208.51 95.8511 207.238 96.1909 206.151 96.6568C205.064 97.1227 204.22 97.7536 203.618 98.5495C203.016 99.3261 202.715 100.297 202.715 101.461C202.715 103.15 203.327 104.441 204.55 105.334C205.792 106.208 207.364 106.645 209.267 106.645ZM240.526 114.361V69.6341H252.553V77.438H253.019C253.834 74.662 255.203 72.5654 257.124 71.1483C259.046 69.7117 261.259 68.9934 263.764 68.9934C264.385 68.9934 265.055 69.0323 265.773 69.1099C266.491 69.1876 267.122 69.2943 267.666 69.4302V80.4373C267.083 80.2626 266.278 80.1073 265.249 79.9714C264.22 79.8355 263.278 79.7676 262.424 79.7676C260.599 79.7676 258.969 80.1655 257.532 80.9615C256.115 81.738 254.989 82.8251 254.154 84.2228C253.339 85.6206 252.931 87.2318 252.931 89.0566V114.361H240.526ZM300.112 69.6341V78.9522H273.176V69.6341H300.112ZM279.292 58.9181H291.696V100.617C291.696 101.762 291.871 102.655 292.221 103.296C292.57 103.917 293.055 104.354 293.676 104.606C294.317 104.859 295.055 104.985 295.89 104.985C296.472 104.985 297.054 104.936 297.637 104.839C298.219 104.723 298.666 104.635 298.976 104.577L300.927 113.808C300.306 114.002 299.432 114.225 298.306 114.478C297.181 114.75 295.812 114.915 294.201 114.973C291.211 115.089 288.59 114.691 286.338 113.779C284.106 112.867 282.368 111.449 281.126 109.528C279.884 107.606 279.272 105.179 279.292 102.248V58.9181ZM309.386 114.361V54.725H333.264C337.652 54.725 341.311 55.3753 344.242 56.676C347.174 57.9766 349.377 59.782 350.852 62.0922C352.328 64.3829 353.065 67.023 353.065 70.0126C353.065 72.3422 352.599 74.3902 351.668 76.1568C350.736 77.9039 349.455 79.3405 347.824 80.4664C346.213 81.573 344.368 82.3592 342.291 82.8251V83.4075C344.563 83.5046 346.688 84.1452 348.668 85.3294C350.668 86.5136 352.289 88.1734 353.531 90.3088C354.774 92.4248 355.395 94.9484 355.395 97.8798C355.395 101.044 354.609 103.869 353.036 106.354C351.483 108.819 349.183 110.77 346.135 112.206C343.087 113.643 339.331 114.361 334.866 114.361H309.386ZM321.995 104.053H332.274C335.788 104.053 338.35 103.383 339.962 102.044C341.573 100.685 342.379 98.8796 342.379 96.6277C342.379 94.9776 341.981 93.5216 341.185 92.2598C340.389 90.9979 339.253 90.0079 337.778 89.2896C336.322 88.5713 334.584 88.2122 332.565 88.2122H321.995V104.053ZM321.995 79.6802H331.342C333.07 79.6802 334.604 79.3793 335.943 78.7775C337.302 78.1563 338.37 77.2827 339.146 76.1568C339.942 75.0308 340.34 73.6816 340.34 72.1092C340.34 69.9544 339.573 68.2169 338.04 66.8968C336.526 65.5768 334.371 64.9167 331.575 64.9167H321.995V79.6802ZM392.049 95.3173V69.6341H404.454V114.361H392.544V106.237H392.078C391.068 108.858 389.389 110.964 387.04 112.556C384.711 114.148 381.867 114.944 378.508 114.944C375.519 114.944 372.888 114.264 370.617 112.905C368.346 111.546 366.569 109.615 365.288 107.111C364.026 104.606 363.386 101.607 363.366 98.1127V69.6341H375.771V95.8997C375.791 98.5398 376.499 100.627 377.897 102.16C379.295 103.694 381.168 104.461 383.517 104.461C385.012 104.461 386.409 104.121 387.71 103.442C389.011 102.743 390.059 101.714 390.855 100.355C391.67 98.996 392.068 97.3168 392.049 95.3173ZM422.034 131.134C420.462 131.134 418.987 131.008 417.608 130.756C416.249 130.523 415.123 130.222 414.23 129.853L417.026 120.593C418.482 121.039 419.792 121.282 420.957 121.321C422.141 121.36 423.16 121.088 424.015 120.506C424.888 119.923 425.597 118.933 426.14 117.535L426.868 115.643L410.824 69.6341H423.869L433.129 102.481H433.595L442.942 69.6341H456.075L438.691 119.195C437.856 121.602 436.72 123.699 435.284 125.485C433.867 127.29 432.071 128.678 429.897 129.649C427.722 130.639 425.102 131.134 422.034 131.134ZM499.637 82.3883L488.281 83.0872C488.087 82.1165 487.669 81.243 487.029 80.4664C486.388 79.6705 485.544 79.0396 484.495 78.5737C483.467 78.0884 482.234 77.8457 480.797 77.8457C478.875 77.8457 477.254 78.2534 475.934 79.0687C474.614 79.8646 473.954 80.9323 473.954 82.2718C473.954 83.3395 474.381 84.2422 475.235 84.9799C476.09 85.7176 477.555 86.3097 479.632 86.7562L487.728 88.3869C492.076 89.2799 495.318 90.7164 497.453 92.6966C499.589 94.6767 500.657 97.278 500.657 100.501C500.657 103.432 499.793 106.004 498.065 108.217C496.357 110.43 494.008 112.158 491.018 113.4C488.048 114.623 484.622 115.235 480.739 115.235C474.818 115.235 470.101 114.002 466.587 111.537C463.093 109.052 461.045 105.674 460.443 101.403L472.644 100.763C473.013 102.568 473.906 103.946 475.323 104.898C476.74 105.829 478.555 106.295 480.768 106.295C482.942 106.295 484.69 105.878 486.01 105.043C487.349 104.189 488.029 103.092 488.048 101.753C488.029 100.627 487.553 99.7046 486.621 98.9863C485.689 98.2486 484.253 97.6857 482.311 97.2974L474.566 95.7541C470.198 94.8805 466.946 93.3663 464.811 91.2115C462.695 89.0566 461.637 86.3097 461.637 82.9707C461.637 80.0976 462.413 77.6225 463.966 75.5453C465.539 73.4681 467.742 71.8665 470.576 70.7406C473.43 69.6146 476.769 69.0517 480.593 69.0517C486.243 69.0517 490.688 70.2456 493.93 72.6333C497.191 75.0211 499.094 78.2728 499.637 82.3883Z" fill="#981EF8"/>
<defs>
<radialGradient id="paint0_radial_216_27" cx="0" cy="0" r="1" gradientUnits="userSpaceOnUse" gradientTransform="translate(6.15972 45.127) rotate(43.4209) scale(150.153)">
<stop stop-color="#F0DDFF"/>
<stop offset="1" stop-color="white" stop-opacity="0"/>
</radialGradient>
</defs>
</svg>
